# xmcd
#
# Track frame offsets: 
#        183
#        27408
#        48258
#        66183
#        86358
#        106908
#        127908
#        162033
#        186145
#        208083
#        228783
#        250833
#
# Disc length: 3506 seconds
#
# Revision: 1
# Processed by: cddbd v1.5.2PL0 Copyright (c) Steve Scherf et al.
# Submitted via: ExactAudioCopy v0.90b4
#
DISCID=920db00c
DTITLE=Putte Wickman - Desire - Mr Clarinet
DYEAR=1986
DGENRE=Jazz
TTITLE0=Desire
TTITLE1=Mr. Walker
TTITLE2=Bahama Papa
TTITLE3=Dorothy's Farwell
TTITLE4=Sambo
TTITLE5=The Shuffle
TTITLE6=Världen Vänder
TTITLE7=Beat Of Wings
TTITLE8=Atlanta Inn
TTITLE9=August
TTITLE10=Pevey
TTITLE11=Sisty Dansen
EXTD=YEAR: 1986
EXTT0=
EXTT1=
EXTT2=
EXTT3=
EXTT4=
EXTT5=
EXTT6=
EXTT7=
EXTT8=
EXTT9=
EXTT10=
EXTT11=
PLAYORDER=
